<mxfile host="65bd71144e">
    <diagram id="J8o2orPp5eSJr5f2FC5Y" name="Page-1">
        <mxGraphModel dx="917" dy="510" grid="1" gridSize="10" guides="1" tooltips="1" connect="1" arrows="1" fold="1" page="1" pageScale="1" pageWidth="850" pageHeight="1100" background="#ffffff" math="0" shadow="0">
            <root>
                <mxCell id="0"/>
                <mxCell id="1" parent="0"/>
                <mxCell id="4" value="" style="group" parent="1" vertex="1" connectable="0">
                    <mxGeometry x="21" y="10" width="1159" height="860" as="geometry"/>
                </mxCell>
                <mxCell id="2" value="STD SpelControl" style="shape=umlFrame;whiteSpace=wrap;html=1;width=120;height=30;boundedLbl=1;verticalAlign=middle;align=left;spacingLeft=5;" parent="4" vertex="1">
                    <mxGeometry width="1159" height="860" as="geometry"/>
                </mxCell>
                <mxCell id="3" value="" style="endArrow=none;html=1;exitX=-0.005;exitY=0.203;exitDx=0;exitDy=0;exitPerimeter=0;entryX=1.003;entryY=0.2;entryDx=0;entryDy=0;entryPerimeter=0;" parent="4" source="2" target="2" edge="1">
                    <mxGeometry width="50" height="50" relative="1" as="geometry">
                        <mxPoint x="657.3432835820895" y="448.695652173913" as="sourcePoint"/>
                        <mxPoint x="743.8358208955223" y="355.2173913043478" as="targetPoint"/>
                    </mxGeometry>
                </mxCell>
                <mxCell id="5" value="KnopIngedrukt(knopID)/KnopIngedruktChannel.Write(knopID)&lt;br&gt;KnopLosgelaten(knopID)/KnopLosgelatenChannel.Write(knopID)&lt;br&gt;KnikGedetecteerd/KnikFlag.set()&lt;br&gt;StartSpel/StartFlag.set()&lt;br&gt;StopSpel/StopFlag.set()&lt;br&gt;SoundKlaar/SoundFlag.set()" style="html=1;align=center;verticalAlign=top;rounded=1;absoluteArcSize=1;arcSize=10;dashed=0;" parent="4" vertex="1">
                    <mxGeometry x="487.11594202898544" y="17.916666666666668" width="587.8985507246376" height="143.33333333333334" as="geometry"/>
                </mxCell>
                <mxCell id="7" style="edgeStyle=none;html=1;" parent="4" source="6" target="5" edge="1">
                    <mxGeometry relative="1" as="geometry"/>
                </mxCell>
                <mxCell id="6" value="" style="ellipse;" parent="4" vertex="1">
                    <mxGeometry x="251.9565217391304" y="62.70833333333333" width="50.39130434782608" height="53.75" as="geometry"/>
                </mxCell>
                <mxCell id="12" value="StartFlag" style="edgeStyle=none;html=1;entryX=0.05;entryY=0.001;entryDx=0;entryDy=0;entryPerimeter=0;exitX=0.168;exitY=1.077;exitDx=0;exitDy=0;exitPerimeter=0;" parent="4" source="8" target="9" edge="1">
                    <mxGeometry relative="1" as="geometry"/>
                </mxCell>
                <mxCell id="8" value="Idle" style="html=1;align=center;verticalAlign=top;rounded=1;absoluteArcSize=1;arcSize=10;dashed=0;" parent="4" vertex="1">
                    <mxGeometry x="19" y="190" width="321" height="40" as="geometry"/>
                </mxCell>
                <mxCell id="9" value="Actief" style="html=1;align=center;verticalAlign=top;rounded=1;absoluteArcSize=1;arcSize=10;dashed=0;" parent="4" vertex="1">
                    <mxGeometry x="19" y="270" width="1041" height="570" as="geometry"/>
                </mxCell>
                <mxCell id="11" style="edgeStyle=none;html=1;" parent="4" source="10" target="8" edge="1">
                    <mxGeometry relative="1" as="geometry"/>
                </mxCell>
                <mxCell id="10" value="" style="ellipse;" parent="4" vertex="1">
                    <mxGeometry x="458.99652173913034" y="183.12833333333333" width="50.39130434782608" height="53.75" as="geometry"/>
                </mxCell>
                <mxCell id="13" value="StopFlag" style="edgeStyle=none;html=1;entryX=0.75;entryY=1;entryDx=0;entryDy=0;exitX=0.25;exitY=0;exitDx=0;exitDy=0;" parent="4" source="9" target="8" edge="1">
                    <mxGeometry relative="1" as="geometry">
                        <mxPoint x="103.92800000000005" y="253.08000000000004" as="sourcePoint"/>
                        <mxPoint x="102.05000000000007" y="290.57000000000005" as="targetPoint"/>
                    </mxGeometry>
                </mxCell>
                <mxCell id="18" value="KnikFlag" style="edgeStyle=none;html=1;entryX=0.5;entryY=0;entryDx=0;entryDy=0;exitX=0.112;exitY=1.042;exitDx=0;exitDy=0;exitPerimeter=0;" parent="4" source="14" target="17" edge="1">
                    <mxGeometry relative="1" as="geometry"/>
                </mxCell>
                <mxCell id="14" value="WachtenOpKnik" style="html=1;align=center;verticalAlign=top;rounded=1;absoluteArcSize=1;arcSize=10;dashed=0;" parent="4" vertex="1">
                    <mxGeometry x="189" y="320" width="501" height="40" as="geometry"/>
                </mxCell>
                <mxCell id="16" style="edgeStyle=none;html=1;" parent="4" source="15" target="14" edge="1">
                    <mxGeometry relative="1" as="geometry"/>
                </mxCell>
                <mxCell id="15" value="" style="ellipse;" parent="4" vertex="1">
                    <mxGeometry x="58.996521739130344" y="313.12833333333333" width="50.39130434782608" height="53.75" as="geometry"/>
                </mxCell>
                <mxCell id="20" value="SoundKlaar/&lt;br&gt;StapTimer.Start(1000000)" style="edgeStyle=none;html=1;" parent="4" source="17" target="19" edge="1">
                    <mxGeometry relative="1" as="geometry"/>
                </mxCell>
                <mxCell id="17" value="Geluid&lt;br&gt;BuzzerControl.MakeSound" style="html=1;align=center;verticalAlign=top;rounded=1;absoluteArcSize=1;arcSize=10;dashed=0;" parent="4" vertex="1">
                    <mxGeometry x="159" y="440" width="171" height="40" as="geometry"/>
                </mxCell>
                <mxCell id="21" value="StapTimer" style="edgeStyle=elbowEdgeStyle;html=1;" parent="4" source="19" target="14" edge="1">
                    <mxGeometry relative="1" as="geometry">
                        <Array as="points">
                            <mxPoint x="389" y="410"/>
                            <mxPoint x="369" y="450"/>
                        </Array>
                    </mxGeometry>
                </mxCell>
                <mxCell id="23" value="KnopID = KnopLosgelatenChannel.read()" style="edgeStyle=elbowEdgeStyle;html=1;" parent="4" source="19" target="22" edge="1">
                    <mxGeometry relative="1" as="geometry"/>
                </mxCell>
                <mxCell id="19" value="WachtenOpStap" style="html=1;align=center;verticalAlign=top;rounded=1;absoluteArcSize=1;arcSize=10;dashed=0;" parent="4" vertex="1">
                    <mxGeometry x="189" y="550" width="111" height="40" as="geometry"/>
                </mxCell>
                <mxCell id="48" value="[KnopID =&amp;nbsp; KnopLinksID]" style="edgeStyle=elbowEdgeStyle;html=1;" parent="4" source="22" target="24" edge="1">
                    <mxGeometry relative="1" as="geometry"/>
                </mxCell>
                <mxCell id="22" value="" style="rhombus;whiteSpace=wrap;html=1;" parent="4" vertex="1">
                    <mxGeometry x="205" y="660" width="80" height="80" as="geometry"/>
                </mxCell>
                <mxCell id="51" value="{KnopIngedruktChannel.read() = KnopLinksID}/&lt;br&gt;MotorControl.GeefVoer" style="edgeStyle=elbowEdgeStyle;html=1;entryX=0.75;entryY=1;entryDx=0;entryDy=0;" parent="4" source="24" target="14" edge="1">
                    <mxGeometry x="0.3115" relative="1" as="geometry">
                        <mxPoint as="offset"/>
                    </mxGeometry>
                </mxCell>
                <mxCell id="24" value="LinksOpgetild" style="html=1;align=center;verticalAlign=top;rounded=1;absoluteArcSize=1;arcSize=10;dashed=0;" parent="4" vertex="1">
                    <mxGeometry x="459" y="680" width="111" height="40" as="geometry"/>
                </mxCell>
                <mxCell id="49" value="StapTimer" style="edgeStyle=elbowEdgeStyle;html=1;exitX=0.5;exitY=0;exitDx=0;exitDy=0;" parent="4" source="24" target="14" edge="1">
                    <mxGeometry relative="1" as="geometry">
                        <mxPoint x="331" y="590" as="sourcePoint"/>
                        <mxPoint x="331" y="360" as="targetPoint"/>
                        <Array as="points">
                            <mxPoint x="515" y="520"/>
                        </Array>
                    </mxGeometry>
                </mxCell>
                <mxCell id="52" value="{KnopIngedruktChannel.read() = KnopRechtsID}/&lt;br&gt;SolonoidControl.GeefWater" style="edgeStyle=elbowEdgeStyle;html=1;entryX=1;entryY=0.5;entryDx=0;entryDy=0;" parent="4" source="54" target="14" edge="1">
                    <mxGeometry x="0.0491" y="1" relative="1" as="geometry">
                        <mxPoint x="758.75" y="430" as="targetPoint"/>
                        <mxPoint as="offset"/>
                    </mxGeometry>
                </mxCell>
                <mxCell id="53" value="StapTimer" style="edgeStyle=elbowEdgeStyle;html=1;" parent="4" source="54" target="14" edge="1">
                    <mxGeometry x="0.0752" relative="1" as="geometry">
                        <mxPoint x="504" y="650" as="sourcePoint"/>
                        <mxPoint x="708.9999999999999" y="430" as="targetPoint"/>
                        <Array as="points">
                            <mxPoint x="819" y="520"/>
                            <mxPoint x="688" y="580"/>
                        </Array>
                        <mxPoint as="offset"/>
                    </mxGeometry>
                </mxCell>
                <mxCell id="54" value="LinksOpgetild" style="html=1;align=center;verticalAlign=top;rounded=1;absoluteArcSize=1;arcSize=10;dashed=0;" parent="4" vertex="1">
                    <mxGeometry x="632" y="740" width="111" height="40" as="geometry"/>
                </mxCell>
                <mxCell id="55" value="[KnopID =&amp;nbsp; KnopRechtsID]" style="edgeStyle=elbowEdgeStyle;html=1;" parent="4" source="22" target="54" edge="1">
                    <mxGeometry x="0.1223" relative="1" as="geometry">
                        <mxPoint x="479" y="770" as="sourcePoint"/>
                        <Array as="points">
                            <mxPoint x="245" y="770"/>
                        </Array>
                        <mxPoint as="offset"/>
                    </mxGeometry>
                </mxCell>
                <mxCell id="57" value="" style="endArrow=none;html=1;exitX=-0.005;exitY=0.203;exitDx=0;exitDy=0;exitPerimeter=0;entryX=1.003;entryY=0.2;entryDx=0;entryDy=0;entryPerimeter=0;" parent="1" source="58" target="58" edge="1">
                    <mxGeometry width="50" height="50" relative="1" as="geometry">
                        <mxPoint x="1893.1332835820895" y="458.695652173913" as="sourcePoint"/>
                        <mxPoint x="1979.6258208955223" y="365.2173913043478" as="targetPoint"/>
                    </mxGeometry>
                </mxCell>
                <mxCell id="58" value="STD MelkenControl" style="shape=umlFrame;whiteSpace=wrap;html=1;width=120;height=30;boundedLbl=1;verticalAlign=middle;align=left;spacingLeft=5;" parent="1" vertex="1">
                    <mxGeometry x="1235.79" y="10" width="824.21" height="650" as="geometry"/>
                </mxCell>
                <mxCell id="59" value="RFIDdetected(ID)RFIDChannel.Write(ID)&lt;br&gt;MelkenGestart/GestartFlag.set()&lt;br&gt;MelkenGestopt(liters)/LitersChannel.Write(Liters)" style="html=1;align=center;verticalAlign=top;rounded=1;absoluteArcSize=1;arcSize=10;dashed=0;" parent="1" vertex="1">
                    <mxGeometry x="1750" y="20" width="284.84" height="100" as="geometry"/>
                </mxCell>
                <mxCell id="60" style="edgeStyle=none;html=1;" parent="1" source="61" target="59" edge="1">
                    <mxGeometry relative="1" as="geometry"/>
                </mxCell>
                <mxCell id="61" value="" style="ellipse;" parent="1" vertex="1">
                    <mxGeometry x="1569.9965217391305" y="43.12833333333333" width="50.39130434782608" height="53.75" as="geometry"/>
                </mxCell>
                <mxCell id="66" value="&lt;span style=&quot;color: rgb(240, 240, 240); font-family: Helvetica; font-size: 11px; font-style: normal; font-variant-ligatures: normal; font-variant-caps: normal; font-weight: 400; letter-spacing: normal; orphans: 2; text-align: center; text-indent: 0px; text-transform: none; widows: 2; word-spacing: 0px; -webkit-text-stroke-width: 0px; background-color: rgb(24, 20, 29); text-decoration-thickness: initial; text-decoration-style: initial; text-decoration-color: initial; float: none; display: inline !important;&quot;&gt;KoeID = RFIDChannel.read()&lt;/span&gt;" style="edgeStyle=elbowEdgeStyle;html=1;" parent="1" source="62" target="65" edge="1">
                    <mxGeometry relative="1" as="geometry"/>
                </mxCell>
                <mxCell id="62" value="WachtenOpKoe" style="html=1;align=center;verticalAlign=top;rounded=1;absoluteArcSize=1;arcSize=10;dashed=0;" parent="1" vertex="1">
                    <mxGeometry x="1610.39" y="280" width="321" height="40" as="geometry"/>
                </mxCell>
                <mxCell id="64" style="edgeStyle=elbowEdgeStyle;html=1;" parent="1" source="63" target="62" edge="1">
                    <mxGeometry relative="1" as="geometry"/>
                </mxCell>
                <mxCell id="63" value="" style="ellipse;" parent="1" vertex="1">
                    <mxGeometry x="1745.6965217391305" y="199.99833333333333" width="50.39130434782608" height="53.75" as="geometry"/>
                </mxCell>
                <mxCell id="69" value="GestartFlag/&lt;br&gt;SpelControl.StartSpel()" style="edgeStyle=elbowEdgeStyle;html=1;" parent="1" source="65" target="68" edge="1">
                    <mxGeometry relative="1" as="geometry"/>
                </mxCell>
                <mxCell id="65" value="WachtenOpMelken" style="html=1;align=center;verticalAlign=top;rounded=1;absoluteArcSize=1;arcSize=10;dashed=0;" parent="1" vertex="1">
                    <mxGeometry x="1610.39" y="410" width="321" height="40" as="geometry"/>
                </mxCell>
                <mxCell id="70" style="edgeStyle=elbowEdgeStyle;html=1;entryX=0;entryY=0.5;entryDx=0;entryDy=0;" parent="1" source="68" target="62" edge="1">
                    <mxGeometry relative="1" as="geometry">
                        <Array as="points">
                            <mxPoint x="1480" y="440"/>
                        </Array>
                    </mxGeometry>
                </mxCell>
                <mxCell id="71" value="Liters = LitersChannel.read()/&lt;br&gt;DatabaseServer.SendData(KoeID,Liters)&lt;br&gt;SpelControl.StopSpel()" style="edgeLabel;html=1;align=center;verticalAlign=middle;resizable=0;points=[];" parent="70" vertex="1" connectable="0">
                    <mxGeometry x="0.1632" y="2" relative="1" as="geometry">
                        <mxPoint as="offset"/>
                    </mxGeometry>
                </mxCell>
                <mxCell id="68" value="Melken" style="html=1;align=center;verticalAlign=top;rounded=1;absoluteArcSize=1;arcSize=10;dashed=0;" parent="1" vertex="1">
                    <mxGeometry x="1610.39" y="570" width="321" height="40" as="geometry"/>
                </mxCell>
            </root>
        </mxGraphModel>
    </diagram>
</mxfile>